<svg width="16" height="16" viewBox="0 0 16 16" fill="none" xmlns="http://www.w3.org/2000/svg">
<path fill-rule="evenodd" clip-rule="evenodd" d="M6.11378 4.10175C6.11378 3.13423 6.8981 2.3499 7.86562 2.3499C8.83314 2.3499 9.61747 3.13423 9.61747 4.10175C9.61747 5.06926 8.83314 5.85359 7.86562 5.85359C6.8981 5.85359 6.11378 5.06926 6.11378 4.10175ZM7.86562 1.1499C6.23536 1.1499 4.91378 2.47149 4.91378 4.10175C4.91378 5.73201 6.23536 7.05359 7.86562 7.05359C9.49588 7.05359 10.8175 5.73201 10.8175 4.10175C10.8175 2.47149 9.49588 1.1499 7.86562 1.1499ZM6.57212 8.2054C4.68208 8.2054 3.1499 9.73757 3.1499 11.6276C3.1499 12.9981 4.2609 14.1091 5.63138 14.1091H10.0999C11.4704 14.1091 12.5814 12.9981 12.5814 11.6276C12.5814 9.73757 11.0492 8.2054 9.15915 8.2054H6.57212ZM4.3499 11.6276C4.3499 10.4003 5.34482 9.4054 6.57212 9.4054H9.15915C10.3864 9.4054 11.3814 10.4003 11.3814 11.6276C11.3814 12.3353 10.8076 12.9091 10.0999 12.9091H5.63138C4.92364 12.9091 4.3499 12.3353 4.3499 11.6276Z" fill="#8092AC"/>
</svg>
